<?xml version="1.0" standalone="no"?>
<!DOCTYPE svg PUBLIC "-//W3C//DTD SVG 20010904//EN"
 "http://www.w3.org/TR/2001/REC-SVG-20010904/DTD/svg10.dtd">
<svg version="1.0" xmlns="http://www.w3.org/2000/svg"
 width="400.000000pt" height="400.000000pt" viewBox="0 0 400.000000 400.000000"
 preserveAspectRatio="xMidYMid meet">
<metadata>
Created by potrace 1.11, written by Peter Selinger 2001-2013
</metadata>
<g transform="translate(0.000000,400.000000) scale(0.100000,-0.100000)"
fill="#000000" stroke="none">
<path d="M3106 3634 c-23 -73 -59 -128 -101 -154 -57 -35 -101 -27 -274 49
-277 123 -440 157 -706 148 -192 -6 -305 -26 -480 -84 -558 -184 -960 -666
-1086 -1303 -20 -100 -23 -146 -24 -360 0 -217 3 -258 23 -358 87 -431 315
-793 643 -1024 181 -127 384 -204 644 -244 149 -22 455 -15 600 15 324 66 600
240 812 513 70 91 193 276 193 291 0 12 -72 49 -79 41 -5 -5 -43 -56 -87 -114
-95 -127 -275 -310 -364 -370 -188 -127 -375 -180 -637 -180 -585 0 -1010 339
-1148 916 -78 328 -75 795 8 1144 128 534 425 849 882 936 129 24 365 15 490
-20 367 -100 606 -351 760 -799 l37 -107 34 0 34 0 -1 58 c0 31 -15 282 -32
557 l-32 500 -46 3 -45 3 -18 -57z"/>
<path d="M2830 2950 c0 -33 -15 -70 -34 -82 -22 -15 -75 -7 -182 26 -224 71
-223 71 -434 70 -180 0 -202 -2 -292 -27 -167 -46 -304 -124 -426 -241 -187
-180 -306 -402 -352 -660 -19 -105 -7 -338 23 -451 32 -117 84 -229 154 -327
154 -220 354 -349 638 -413 113 -26 426 -31 555 -10 135 22 277 65 385 117
l85 40 0 292 c1 338 11 510 35 560 22 46 68 74 144 87 55 10 61 14 61 35 l0
24 -400 0 -400 0 0 -29 c0 -28 1 -29 68 -33 84 -5 136 -30 170 -81 l27 -41 3
-386 3 -387 -68 -31 c-105 -48 -176 -64 -313 -69 -153 -6 -226 9 -355 71 -207
101 -362 309 -435 585 -31 118 -40 195 -40 343 0 439 190 774 504 887 118 42
298 54 419 27 222 -50 379 -193 479 -438 27 -66 36 -78 55 -78 29 0 29 -5 0
365 l-22 280 -27 3 c-25 3 -28 0 -28 -28z"/>
<path d="M1844 2291 c-53 -14 -135 -64 -170 -104 -65 -77 -79 -119 -79 -242 0
-92 4 -118 22 -157 30 -66 96 -133 162 -165 49 -24 68 -28 146 -28 78 0 97 4
140 27 68 35 128 97 162 166 25 51 28 68 28 157 0 93 -2 105 -33 167 -56 115
-153 179 -276 184 -39 2 -85 0 -102 -5z m161 -40 c51 -23 78 -53 107 -116 30
-68 38 -264 14 -349 -47 -161 -233 -221 -338 -110 -111 119 -113 428 -2 538
58 57 143 72 219 37z"/>
<path d="M1810 2087 c25 -13 25 -13 25 -152 0 -139 0 -139 -25 -152 -21 -11
-7 -13 102 -13 70 0 129 3 131 8 3 4 8 22 12 40 l7 32 -31 -30 c-28 -28 -35
-31 -88 -28 l-58 3 -3 134 c-3 140 1 156 41 164 12 2 -14 5 -58 5 -71 2 -77 0
-55 -11z"/>
</g>
</svg>
